<svg width="75" height="14" viewBox="0 0 75 14" fill="none" xmlns="http://www.w3.org/2000/svg">
<g id="_&#235;&#148;&#148;&#236;&#158;&#144;&#236;&#157;&#184;" clip-path="url(#clip0_4080_4446)">
<path id="Vector" d="M46.4501 7.78047H51.6201V5.74047H46.4501V3.52047H52.4601V1.23047H43.8101V12.7705H52.5801V10.4905H46.4501V7.78047Z" fill="black"/>
<path id="Vector_2" d="M22.16 1.23047V3.51047H25.58V12.7705H28.23V3.51047H31.65V1.23047H22.16Z" fill="black"/>
<path id="Vector_3" d="M32.77 1.23047V3.52047H36.2V12.7705H38.84V3.52047H42.27V1.23047H32.77Z" fill="black"/>
<path id="Vector_4" d="M5.29 1.23047H0V12.7705H2.64V8.78047H5.22C7.54 8.78047 9.31 7.45047 9.31 4.99047C9.31 2.53047 7.44 1.23047 5.29 1.23047ZM4.97 6.74047H2.64V3.51047H4.88C5.89 3.51047 6.67 4.12047 6.67 5.11047C6.67 6.10047 5.85 6.73047 4.97 6.73047V6.74047Z" fill="black"/>
<path id="Vector_5" d="M16.13 0.990234C12.98 0.990234 10.42 3.36023 10.42 7.00023C10.42 10.6402 12.98 13.0102 16.13 13.0102C19.28 13.0102 21.84 10.6402 21.84 7.00023C21.84 3.36023 19.28 0.990234 16.13 0.990234ZM16.13 10.7802C14.45 10.7802 13.07 9.33023 13.07 6.99023C13.07 4.65023 14.46 3.20023 16.13 3.20023C17.8 3.20023 19.19 4.65023 19.19 6.99023C19.19 9.33023 17.8 10.7802 16.13 10.7802Z" fill="black"/>
<path id="Vector_6" d="M63.7 10.0702C63.68 9.11023 63.63 7.93023 61.78 7.43023V7.37023C63.14 6.82023 63.91 5.94023 63.91 4.48023C63.91 2.40023 62.26 1.24023 60.01 1.24023H54.5V12.7702H57.14V8.45023H59.25C60.35 8.45023 60.96 9.08023 61.02 10.0702C61.09 11.2502 61.16 12.7702 61.53 12.7702H64.17V12.6502C63.98 12.6502 63.74 12.2902 63.69 10.0702H63.7ZM59.67 6.40023H57.15V3.52023H59.67C60.56 3.52023 61.26 4.08023 61.26 4.96023C61.26 5.84023 60.55 6.40023 59.67 6.40023Z" fill="black"/>
<path id="Vector_7" d="M72.1 1.24023C70.65 3.91023 70.43 4.42023 69.76 6.02023C69.09 4.42023 68.87 3.91023 67.42 1.24023H64.52L68.45 8.38023V12.7702H71.09V8.39023L75 1.24023H72.1Z" fill="black"/>
</g>
<defs>
<clipPath id="clip0_4080_4446">
<rect width="75" height="12.02" fill="white" transform="translate(0 0.990234)"/>
</clipPath>
</defs>
</svg>
